<svg xmlns="http://www.w3.org/2000/svg" viewBox="0 0 100 100" fill="none">
  <defs>
    <linearGradient id="grad3" x1="0%" y1="0%" x2="100%" y2="100%">
      <stop offset="0%" style="stop-color:#E50914;stop-opacity:1" />
      <stop offset="100%" style="stop-color:#C40812;stop-opacity:1" />
    </linearGradient>
  </defs>
  
  <!-- Outer Gear -->
  <circle cx="50" cy="50" r="30" fill="none" stroke="url(#grad3)" stroke-width="4"/>
  
  <!-- Gear Teeth -->
  <path d="M 50 15 L 55 20 L 45 20 Z" fill="url(#grad3)"/>
  <path d="M 72 28 L 72 38 L 67 33 Z" fill="url(#grad3)"/>
  <path d="M 85 50 L 80 55 L 80 45 Z" fill="url(#grad3)"/>
  <path d="M 72 72 L 67 67 L 72 62 Z" fill="url(#grad3)"/>
  <path d="M 50 85 L 45 80 L 55 80 Z" fill="url(#grad3)"/>
  <path d="M 28 72 L 33 67 L 28 62 Z" fill="url(#grad3)"/>
  <path d="M 15 50 L 20 45 L 20 55 Z" fill="url(#grad3)"/>
  <path d="M 28 28 L 33 33 L 28 38 Z" fill="url(#grad3)"/>
  
  <!-- Inner Circle -->
  <circle cx="50" cy="50" r="15" fill="url(#grad3)"/>
  <circle cx="50" cy="50" r="8" fill="#1a1a1a" stroke="#BDC3C7" stroke-width="2"/>
</svg>
