<svg xmlns="http://www.w3.org/2000/svg" viewBox="0 0 100 100" fill="none">
  <defs>
    <linearGradient id="grad1" x1="0%" y1="0%" x2="100%" y2="100%">
      <stop offset="0%" style="stop-color:#E50914;stop-opacity:1" />
      <stop offset="100%" style="stop-color:#C40812;stop-opacity:1" />
    </linearGradient>
    <linearGradient id="gradSilver" x1="0%" y1="0%" x2="100%" y2="0%">
      <stop offset="0%" style="stop-color:#BDC3C7;stop-opacity:1" />
      <stop offset="50%" style="stop-color:#ECF0F1;stop-opacity:1" />
      <stop offset="100%" style="stop-color:#BDC3C7;stop-opacity:1" />
    </linearGradient>
    <linearGradient id="gradGold" x1="0%" y1="0%" x2="100%" y2="0%">
      <stop offset="0%" style="stop-color:#F1C40F;stop-opacity:1" />
      <stop offset="50%" style="stop-color:#F39C12;stop-opacity:1" />
      <stop offset="100%" style="stop-color:#F1C40F;stop-opacity:1" />
    </linearGradient>
  </defs>
  
  <!-- Tool Bit (Drill) -->
  <path d="M 46 75 L 46 90 L 50 95 L 54 90 L 54 75" fill="url(#gradSilver)" stroke="#7F8C8D" stroke-width="0.5"/>
  <!-- Spiral lines -->
  <path d="M 46 78 L 54 82" stroke="#7F8C8D" stroke-width="0.5"/>
  <path d="M 46 85 L 54 89" stroke="#7F8C8D" stroke-width="0.5"/>

  <!-- HSK Shank (Top) -->
  <path d="M 38 5 L 62 5 L 64 30 L 36 30 Z" fill="url(#grad1)" stroke="#BDC3C7" stroke-width="1"/>
  
  <!-- Flange -->
  <rect x="30" y="30" width="40" height="12" rx="1" fill="url(#grad1)" stroke="#BDC3C7" stroke-width="1"/>
  <line x1="30" y1="36" x2="70" y2="36" stroke="#BDC3C7" stroke-width="1"/>
  
  <!-- Tapered Neck -->
  <path d="M 32 42 Q 32 45 40 55 L 42 65 L 58 65 L 60 55 Q 68 45 68 42 Z" fill="url(#grad1)" stroke="#BDC3C7" stroke-width="1"/>
  
  <!-- Collet Nut -->
  <rect x="38" y="65" width="24" height="10" rx="1" fill="url(#grad1)" stroke="#BDC3C7" stroke-width="1"/>
  
  <!-- Highlights -->
  <path d="M 42 8 L 40 28" stroke="white" stroke-width="2" opacity="0.3" stroke-linecap="round"/>
  <path d="M 34 33 L 66 33" stroke="white" stroke-width="1" opacity="0.3"/>
  <path d="M 45 45 Q 45 50 48 60" stroke="white" stroke-width="2" opacity="0.3" stroke-linecap="round"/>
</svg>
